<?xml version="1.0" encoding="UTF-8"?>
<!-- after-scatter-inline -->
<svg viewBox="0 0 420 210" class="h-auto w-full max-w-full" aria-hidden="true"><text x="48" y="13" fill="#3f3f46" style="font-size:11px;font-weight:500">Utilisation vs Headcount</text><circle cx="67.07142857142858" cy="158.28571428571428" r="2.2" class="fill-zinc-600/80"></circle><circle cx="120.04761904761907" cy="115.42857142857142" r="2.2" class="fill-zinc-600/80"></circle><circle cx="173.02380952380955" cy="95.64835164835165" r="2.2" class="fill-zinc-600/80"></circle><circle cx="226.00000000000003" cy="138.5054945054945" r="2.2" class="fill-zinc-600/80"></circle><circle cx="278.97619047619054" cy="59.3846153846154" r="2.2" class="fill-zinc-600/80"></circle><circle cx="331.95238095238096" cy="79.16483516483515" r="2.2" class="fill-zinc-600/80"></circle><circle cx="384.92857142857144" cy="29.714285714285694" r="2.2" class="fill-zinc-600/80"></circle><g class="chart-axes"><line x1="48" y1="166" x2="404" y2="166" class="stroke-zinc-200" stroke-width="1"></line><line x1="48" y1="22" x2="48" y2="166" class="stroke-zinc-200" stroke-width="1"></line><g><line x1="44" y1="166" x2="48" y2="166" class="stroke-zinc-300" stroke-width="1"></line><text x="40" y="169.15" text-anchor="end" fill="#71717a" style="font-size:9px">0.2</text></g><g><line x1="44" y1="164.87912087912085" x2="48" y2="164.87912087912085" class="stroke-zinc-300" stroke-width="1"></line><text x="40" y="168.02912087912085" text-anchor="end" fill="#71717a" style="font-size:9px">0.4</text></g><g><line x1="44" y1="98.94505494505495" x2="48" y2="98.94505494505495" class="stroke-zinc-300" stroke-width="1"></line><text x="40" y="102.09505494505495" text-anchor="end" fill="#71717a" style="font-size:9px">0.6</text></g><g><line x1="44" y1="33.01098901098899" x2="48" y2="33.01098901098899" class="stroke-zinc-300" stroke-width="1"></line><text x="40" y="36.16098901098899" text-anchor="end" fill="#71717a" style="font-size:9px">0.8</text></g><g><line x1="44" y1="22" x2="48" y2="22" class="stroke-zinc-300" stroke-width="1"></line><text x="40" y="25.15" text-anchor="end" fill="#71717a" style="font-size:9px">1</text></g><g><line x1="48" y1="166" x2="48" y2="170" class="stroke-zinc-300" stroke-width="1"></line><text x="48" y="181" text-anchor="middle" fill="#71717a" style="font-size:9px">0</text></g><g><line x1="137.70634920634922" y1="166" x2="137.70634920634922" y2="170" class="stroke-zinc-300" stroke-width="1"></line><text x="137.70634920634922" y="181" text-anchor="middle" fill="#71717a" style="font-size:9px">20</text></g><g><line x1="314.29365079365084" y1="166" x2="314.29365079365084" y2="170" class="stroke-zinc-300" stroke-width="1"></line><text x="314.29365079365084" y="181" text-anchor="middle" fill="#71717a" style="font-size:9px">40</text></g><g><line x1="404" y1="166" x2="404" y2="170" class="stroke-zinc-300" stroke-width="1"></line><text x="404" y="181" text-anchor="middle" fill="#71717a" style="font-size:9px">60</text></g><text x="226" y="206" text-anchor="middle" fill="#a1a1aa" style="font-size:9px">Headcount</text><text x="12" y="94" text-anchor="middle" fill="#a1a1aa" style="font-size:9px" transform="rotate(-90 12 94)">Utilisation rate</text></g></svg>