<?xml version="1.0" encoding="UTF-8"?>
<!-- after-bar-long-labels-comfortable -->
<svg viewBox="0 0 880 422" class="h-auto w-full max-w-full" aria-hidden="true"><text x="64" y="16" fill="#3f3f46" style="font-size:14px;font-weight:500">Mean score by venue entrance</text><rect x="75.88" y="49.33333333333334" width="173.24" height="154.66666666666666" fill="#71717a" rx="1"></rect><rect x="273.88" y="64.37037037037038" width="173.24" height="139.62962962962962" fill="#71717a" rx="1"></rect><rect x="471.88" y="30" width="173.24" height="174" fill="#71717a" rx="1"></rect><rect x="669.88" y="79.40740740740742" width="173.24" height="124.59259259259258" fill="#71717a" rx="1"></rect><g class="chart-axes"><line x1="64" y1="204" x2="856" y2="204" class="stroke-zinc-200" stroke-width="1"></line><line x1="64" y1="30" x2="64" y2="204" class="stroke-zinc-200" stroke-width="1"></line><g><line x1="60" y1="204" x2="64" y2="204" class="stroke-zinc-300" stroke-width="1"></line><text x="56" y="208.2" text-anchor="end" fill="#71717a" style="font-size:12px">0</text></g><g><line x1="60" y1="161.03703703703704" x2="64" y2="161.03703703703704" class="stroke-zinc-300" stroke-width="1"></line><text x="56" y="165.23703703703703" text-anchor="end" fill="#71717a" style="font-size:12px">20</text></g><g><line x1="60" y1="118.07407407407408" x2="64" y2="118.07407407407408" class="stroke-zinc-300" stroke-width="1"></line><text x="56" y="122.27407407407408" text-anchor="end" fill="#71717a" style="font-size:12px">40</text></g><g><line x1="60" y1="75.11111111111111" x2="64" y2="75.11111111111111" class="stroke-zinc-300" stroke-width="1"></line><text x="56" y="79.31111111111112" text-anchor="end" fill="#71717a" style="font-size:12px">60</text></g><g><line x1="60" y1="32.14814814814815" x2="64" y2="32.14814814814815" class="stroke-zinc-300" stroke-width="1"></line><text x="56" y="36.348148148148155" text-anchor="end" fill="#71717a" style="font-size:12px">80</text></g><g><line x1="60" y1="30" x2="64" y2="30" class="stroke-zinc-300" stroke-width="1"></line><text x="56" y="34.2" text-anchor="end" fill="#71717a" style="font-size:12px">100</text></g><text x="163" y="214" text-anchor="end" fill="#71717a" style="font-size:12px" transform="rotate(-45 163 214)">Queen Elizabeth Olympic Park East Gate</text><text x="361" y="214" text-anchor="end" fill="#71717a" style="font-size:12px" transform="rotate(-45 361 214)">Victoria Park West Pavilion Entrance</text><text x="559" y="214" text-anchor="end" fill="#71717a" style="font-size:12px" transform="rotate(-45 559 214)">Hackney Wick Canal Towpath Access</text><text x="757" y="214" text-anchor="end" fill="#71717a" style="font-size:12px" transform="rotate(-45 757 214)">Mile End Park Southern Footbridge</text><text x="460" y="418" text-anchor="middle" fill="#a1a1aa" style="font-size:12px">Entrance</text><text x="12" y="117" text-anchor="middle" fill="#a1a1aa" style="font-size:12px" transform="rotate(-90 12 117)">Mean score</text></g><g transform="translate(852 34)"><g transform="translate(0 0)"><rect width="8" height="8" fill="#71717a" rx="1"></rect><text x="12" y="7" fill="#52525b" style="font-size:12px">Mean score</text></g></g></svg>