<?xml version="1.0" encoding="UTF-8"?>
<!-- after-scatter-comfortable -->
<svg viewBox="0 0 880 422" class="h-auto w-full max-w-full" aria-hidden="true"><text x="64" y="16" fill="#3f3f46" style="font-size:14px;font-weight:500">Utilisation vs Headcount</text><circle cx="106.42857142857144" cy="348" r="3" class="fill-zinc-600/80"></circle><circle cx="224.2857142857143" cy="247.99999999999994" r="3" class="fill-zinc-600/80"></circle><circle cx="342.1428571428572" cy="201.84615384615384" r="3" class="fill-zinc-600/80"></circle><circle cx="460.0000000000001" cy="301.8461538461538" r="3" class="fill-zinc-600/80"></circle><circle cx="577.857142857143" cy="117.23076923076925" r="3" class="fill-zinc-600/80"></circle><circle cx="695.7142857142858" cy="163.38461538461536" r="3" class="fill-zinc-600/80"></circle><circle cx="813.5714285714287" cy="48" r="3" class="fill-zinc-600/80"></circle><g class="chart-axes"><line x1="64" y1="366" x2="856" y2="366" class="stroke-zinc-200" stroke-width="1"></line><line x1="64" y1="30" x2="64" y2="366" class="stroke-zinc-200" stroke-width="1"></line><g><line x1="60" y1="366" x2="64" y2="366" class="stroke-zinc-300" stroke-width="1"></line><text x="56" y="370.2" text-anchor="end" fill="#71717a" style="font-size:12px">0.3</text></g><g><line x1="60" y1="363.38461538461536" x2="64" y2="363.38461538461536" class="stroke-zinc-300" stroke-width="1"></line><text x="56" y="367.58461538461535" text-anchor="end" fill="#71717a" style="font-size:12px">0.4</text></g><g><line x1="60" y1="286.46153846153845" x2="64" y2="286.46153846153845" class="stroke-zinc-300" stroke-width="1"></line><text x="56" y="290.66153846153844" text-anchor="end" fill="#71717a" style="font-size:12px">0.5</text></g><g><line x1="60" y1="209.53846153846155" x2="64" y2="209.53846153846155" class="stroke-zinc-300" stroke-width="1"></line><text x="56" y="213.73846153846154" text-anchor="end" fill="#71717a" style="font-size:12px">0.6</text></g><g><line x1="60" y1="132.61538461538467" x2="64" y2="132.61538461538467" class="stroke-zinc-300" stroke-width="1"></line><text x="56" y="136.81538461538466" text-anchor="end" fill="#71717a" style="font-size:12px">0.7</text></g><g><line x1="60" y1="55.69230769230768" x2="64" y2="55.69230769230768" class="stroke-zinc-300" stroke-width="1"></line><text x="56" y="59.89230769230768" text-anchor="end" fill="#71717a" style="font-size:12px">0.8</text></g><g><line x1="60" y1="30" x2="64" y2="30" class="stroke-zinc-300" stroke-width="1"></line><text x="56" y="34.2" text-anchor="end" fill="#71717a" style="font-size:12px">0.9</text></g><g><line x1="64" y1="366" x2="64" y2="370" class="stroke-zinc-300" stroke-width="1"></line><text x="64" y="384" text-anchor="middle" fill="#71717a" style="font-size:12px">0</text></g><g><line x1="67.14285714285714" y1="366" x2="67.14285714285714" y2="370" class="stroke-zinc-300" stroke-width="1"></line><text x="67.14285714285714" y="384" text-anchor="middle" fill="#71717a" style="font-size:12px">10</text></g><g><line x1="263.5714285714286" y1="366" x2="263.5714285714286" y2="370" class="stroke-zinc-300" stroke-width="1"></line><text x="263.5714285714286" y="384" text-anchor="middle" fill="#71717a" style="font-size:12px">20</text></g><g><line x1="460.0000000000001" y1="366" x2="460.0000000000001" y2="370" class="stroke-zinc-300" stroke-width="1"></line><text x="460.0000000000001" y="384" text-anchor="middle" fill="#71717a" style="font-size:12px">30</text></g><g><line x1="656.4285714285716" y1="366" x2="656.4285714285716" y2="370" class="stroke-zinc-300" stroke-width="1"></line><text x="656.4285714285716" y="384" text-anchor="middle" fill="#71717a" style="font-size:12px">40</text></g><g><line x1="852.857142857143" y1="366" x2="852.857142857143" y2="370" class="stroke-zinc-300" stroke-width="1"></line><text x="852.857142857143" y="384" text-anchor="middle" fill="#71717a" style="font-size:12px">50</text></g><g><line x1="856" y1="366" x2="856" y2="370" class="stroke-zinc-300" stroke-width="1"></line><text x="856" y="384" text-anchor="middle" fill="#71717a" style="font-size:12px">60</text></g><text x="460" y="418" text-anchor="middle" fill="#a1a1aa" style="font-size:12px">Headcount</text><text x="12" y="198" text-anchor="middle" fill="#a1a1aa" style="font-size:12px" transform="rotate(-90 12 198)">Utilisation rate</text></g></svg>